# This file uses centimeters as units for non-parametric coordinates.

mtllib e.mtl
g default
v 0.855574 0.500000 -0.500000
v 0.855574 0.500000 0.500000
v -0.855573 -0.500000 -0.500000
v -0.855573 -0.500000 0.500000
v 2.491197 -0.500000 -0.500000
v 2.491197 -0.500000 0.500000
v -2.491197 0.500000 0.500000
v -2.491197 0.500000 -0.500000
v -0.144732 3.954680 0.000000
v 0.144734 -3.954680 0.000000
vt 0.929455 0.815824
vt 0.656562 0.815824
vt 0.110777 0.198578
vt 0.383669 0.198578
vt 0.656562 0.198578
vt 0.929455 0.198578
vt 0.383669 0.815824
vt 0.110777 0.815824
vt 0.793009 0.815824
vt 0.247223 0.198578
vn -0.860620 -0.509247 0.000000
vn -0.860620 -0.509247 0.000000
vn -0.860620 -0.509247 0.000000
vn 0.000000 -1.000000 0.000000
vn 0.000000 -1.000000 0.000000
vn 0.000000 -1.000000 0.000000
vn 0.000000 -1.000000 0.000000
vn 0.000000 1.000000 0.000000
vn 0.000000 1.000000 0.000000
vn 0.000000 1.000000 0.000000
vn 0.000000 1.000000 0.000000
vn 0.105307 0.172243 -0.979409
vn 0.041364 0.067656 -0.996851
vn 0.041851 0.068452 -0.996776
vn -0.105307 -0.172243 -0.979409
vn -0.041364 -0.067656 -0.996851
vn -0.041850 -0.068452 -0.996776
vn -0.960544 -0.278127 0.000000
vn -0.960544 -0.278127 0.000000
vn -0.960544 -0.278127 0.000000
vn 0.860620 0.509247 0.000000
vn 0.860620 0.509247 0.000000
vn 0.860620 0.509247 0.000000
vn 0.960544 0.278127 0.000000
vn 0.960544 0.278127 0.000000
vn 0.960544 0.278127 0.000000
vn -0.105307 -0.172243 0.979409
vn -0.041850 -0.068452 0.996776
vn -0.041364 -0.067656 0.996851
vn 0.105307 0.172243 0.979409
vn 0.041851 0.068452 0.996776
vn 0.041364 0.067656 0.996851
s off
g pCube1
usemtl initialShadingGroup
f 7/7/1 8/8/2 10/10/3
f 6/5/4 4/4/5 3/3/6 5/6/7
f 2/2/8 1/1/9 8/8/10 7/7/11
s 1
f 9/9/12 5/6/13 1/1/14
f 10/10/15 8/8/16 3/3/17
f 3/3/17 8/8/16 1/1/14 5/6/13
s off
f 1/1/18 2/2/19 9/9/20
f 5/6/21 9/9/22 6/5/23
f 3/3/24 4/4/25 10/10/26
s 2
f 10/10/27 4/4/28 7/7/29
f 9/9/30 2/2/31 6/5/32
f 2/2/31 7/7/29 4/4/28 6/5/32
