# This file uses centimeters as units for non-parametric coordinates.

mtllib upObj.mtl
g default
v -0.895683 2.207962 -1.114935
v -0.895683 2.574162 -0.656888
v -0.895683 2.574162 0.656888
v -0.895683 2.207962 1.114935
v -0.895683 1.267968 1.114935
v -0.895683 0.901767 0.656888
v -0.895683 0.901767 -0.656888
v -0.895683 1.267968 -1.114935
v 0.895683 2.207962 -1.114935
v 0.895683 2.574162 -0.656888
v 0.895683 2.574162 0.656888
v 0.895683 2.207962 1.114935
v 0.895683 1.267968 1.114935
v 0.895683 0.901767 0.656888
v 0.895683 0.901767 -0.656888
v 0.895683 1.267968 -1.114935
v -0.895683 2.389475 -1.341974
v 0.895683 2.389475 -1.341974
v -0.895683 2.867857 -0.743609
v 0.895683 2.867857 -0.743609
v -0.895683 2.867857 0.743609
v 0.895683 2.867857 0.743609
v -0.895683 2.389475 1.341974
v 0.895683 2.389475 1.341974
v -0.895683 1.086455 1.341974
v 0.895683 1.086455 1.341974
v -0.895683 0.608073 0.743609
v 0.895683 0.608073 0.743609
v -0.895683 0.608073 -0.743609
v 0.895683 0.608073 -0.743609
v -0.895683 1.086455 -1.341974
v 0.895683 1.086455 -1.341974
v 0.750346 -0.013778 0.750346
v 0.750346 -0.013778 -0.750346
v 0.750346 0.232490 0.750346
v 0.750346 0.232490 -0.750346
v -0.750346 0.232490 0.750346
v -0.750346 0.232490 -0.750346
v -0.750346 -0.013778 0.750346
v -0.750346 -0.013778 -0.750346
v 0.497447 0.357208 0.497447
v 0.497447 0.357208 -0.497447
v -0.497447 0.357208 -0.497447
v -0.497447 0.357208 0.497447
v -1.030415 -0.188565 -1.030415
v -1.030415 -0.188565 1.030415
v 1.030415 -0.188565 -1.030415
v 1.030415 -0.188565 1.030415
v 0.327030 0.357208 -0.327030
v 0.327030 0.357208 0.327030
v -0.327030 0.357208 -0.327030
v -0.327030 0.357208 0.327030
v 0.327030 0.512195 -0.327030
v 0.327030 0.512195 0.327030
v -0.327030 0.512195 -0.327030
v -0.327030 0.512195 0.327030
v -0.666867 -0.381097 -0.666867
v -0.666867 -0.381097 0.666867
v 0.666867 -0.381097 -0.666867
v 0.666867 -0.381097 0.666867
v -0.666867 -0.931085 -0.666867
v -0.666867 -0.931085 0.666867
v 0.666867 -0.931085 -0.666867
v 0.666867 -0.931085 0.666867
v -1.259825 -1.356913 -1.259825
v -1.259825 -1.356913 1.259825
v 1.259825 -1.356913 -1.259825
v 1.259825 -1.356913 1.259825
v 0.317780 3.575724 0.127429
v 0.200144 3.691531 0.000000
v -0.240190 3.575724 0.127429
v -0.240190 3.691526 0.000000
v -0.121614 3.459749 0.000000
v -0.240190 3.575724 -0.127429
v 0.317780 3.459923 0.000000
v 0.317780 3.575724 -0.127429
v -0.381218 3.461573 0.127429
v -0.518221 3.493033 0.000000
v -0.381218 3.461573 -0.127429
v 0.594136 3.659834 0.000000
v 0.460703 3.690415 -0.127429
v 0.460703 3.690415 0.127429
v 0.075573 2.873533 0.000000
v -0.002008 4.278551 0.000000
vt 0.387500 0.688440
vt 0.387500 0.312500
vt 0.412500 0.312500
vt 0.412500 0.688440
vt 0.437500 0.312500
vt 0.437500 0.688440
vt 0.462500 0.312500
vt 0.462500 0.688440
vt 0.512500 0.312500
vt 0.512500 0.688440
vt 0.537500 0.312500
vt 0.537500 0.688440
vt 0.562500 0.688440
vt 0.562500 0.312500
vt 0.587500 0.312500
vt 0.587500 0.688440
vt 0.587500 0.688440
vt 0.387500 0.688440
vt 0.387500 0.312500
vt 0.587500 0.312500
vt 0.412500 0.688440
vt 0.412500 0.312500
vt 0.437500 0.688440
vt 0.437500 0.312500
vt 0.462500 0.688440
vt 0.462500 0.312500
vt 0.512500 0.688440
vt 0.512500 0.312500
vt 0.537500 0.688440
vt 0.537500 0.312500
vt 0.562500 0.688440
vt 0.562500 0.312500
vt 0.387500 0.688440
vt 0.587500 0.688440
vt 0.387500 0.312500
vt 0.412500 0.312500
vt 0.412500 0.688440
vt 0.437500 0.312500
vt 0.437500 0.688440
vt 0.462500 0.312500
vt 0.462500 0.688440
vt 0.512500 0.312500
vt 0.512500 0.688440
vt 0.537500 0.312500
vt 0.537500 0.688440
vt 0.562500 0.312500
vt 0.562500 0.688440
vt 0.587500 0.312500
vt 0.375000 0.000000
vt 0.625000 0.000000
vt 0.625000 0.250000
vt 0.375000 0.250000
vt 0.375000 0.500000
vt 0.625000 0.500000
vt 0.625000 0.750000
vt 0.375000 0.750000
vt 0.875000 0.000000
vt 0.875000 0.250000
vt 0.125000 0.000000
vt 0.125000 0.250000
vt 0.625000 0.250000
vt 0.375000 0.250000
vt 0.625000 0.500000
vt 0.375000 0.500000
vt 0.625000 0.750000
vt 0.375000 0.750000
vt 0.625000 1.000000
vt 0.625000 1.000000
vt 0.375000 1.000000
vt 0.375000 1.000000
vt 0.375000 0.750000
vt 0.625000 0.750000
vt 0.625000 1.000000
vt 0.375000 1.000000
vt 0.625000 0.250000
vt 0.375000 0.250000
vt 0.625000 0.500000
vt 0.375000 0.500000
vt 0.625000 0.250000
vt 0.375000 0.250000
vt 0.625000 0.500000
vt 0.375000 0.500000
vt 0.625000 0.750000
vt 0.375000 0.750000
vt 0.625000 1.000000
vt 0.375000 1.000000
vt 0.625000 0.750000
vt 0.375000 0.750000
vt 0.625000 1.000000
vt 0.375000 1.000000
vt 0.375000 0.000000
vt 0.625000 0.000000
vt 0.625000 0.250000
vt 0.375000 0.250000
vt 0.375000 0.500000
vt 0.625000 0.500000
vt 0.625000 0.750000
vt 0.375000 0.750000
vt 0.875000 0.000000
vt 0.875000 0.250000
vt 0.125000 0.000000
vt 0.125000 0.250000
vt 0.625000 0.250000
vt 0.375000 0.250000
vt 0.625000 0.500000
vt 0.625000 0.750000
vt 0.375000 0.750000
vt 0.625000 1.000000
vt 0.375000 1.000000
vt 0.375000 1.000000
vt 0.500000 0.375000
vt 0.500000 0.875000
vn 0.000000 0.318413 -0.947952
vn 0.000000 0.318413 -0.947952
vn 0.000000 0.974688 -0.223569
vn 0.000000 0.974688 -0.223569
vn 0.000000 0.974688 -0.223569
vn 0.000000 0.974688 -0.223569
vn 0.000000 0.974688 0.223569
vn 0.000000 0.974688 0.223569
vn 0.000000 0.974688 0.223569
vn 0.000000 0.974688 0.223569
vn 0.000000 0.318413 0.947952
vn 0.000000 0.318413 0.947952
vn 0.000000 0.318413 0.947952
vn 0.000000 0.318413 0.947952
vn 0.000000 -0.318413 0.947952
vn 0.000000 -0.318413 0.947952
vn 0.000000 -0.318413 0.947952
vn 0.000000 -0.318413 0.947952
vn 0.000000 -0.781066 0.624448
vn 0.000000 -0.781066 0.624448
vn 0.000000 -0.781066 -0.624448
vn 0.000000 -0.781066 -0.624448
vn 0.000000 -0.318413 -0.947952
vn 0.000000 -0.318413 -0.947952
vn 0.000000 -0.318413 -0.947952
vn 0.000000 -0.318413 -0.947952
vn 0.000000 0.318413 -0.947952
vn 0.000000 0.318413 -0.947952
vn 0.000000 0.330916 0.943660
vn 0.000000 -0.330916 0.943660
vn 0.000000 -0.330916 0.943660
vn 0.000000 0.330916 0.943660
vn 0.000000 -0.330916 0.943660
vn 0.000000 -0.979302 0.202402
vn 0.000000 -0.979302 0.202402
vn 0.000000 -0.330916 0.943660
vn 0.000000 -0.979302 0.202402
vn 0.000000 -0.979302 -0.202402
vn 0.000000 -0.979302 -0.202402
vn 0.000000 -0.979302 0.202402
vn 0.000000 -0.979302 -0.202402
vn 0.000000 -0.330916 -0.943660
vn 0.000000 -0.330916 -0.943660
vn 0.000000 -0.979302 -0.202402
vn 0.000000 -0.330916 -0.943660
vn 0.000000 0.330916 -0.943660
vn 0.000000 0.330916 -0.943660
vn 0.000000 -0.330916 -0.943660
vn 0.000000 0.330916 -0.943660
vn 0.000000 0.979302 -0.202402
vn 0.000000 0.979302 -0.202402
vn 0.000000 0.330916 -0.943660
vn 0.000000 0.979302 -0.202402
vn 0.000000 0.979302 0.202402
vn 0.000000 0.979302 0.202402
vn 0.000000 0.979302 -0.202402
vn 0.000000 0.979302 0.202402
vn 0.000000 0.330916 0.943660
vn 0.000000 0.330916 0.943660
vn 0.000000 0.979302 0.202402
vn 1.000000 0.000000 0.000000
vn 1.000000 0.000000 0.000000
vn 1.000000 0.000000 0.000000
vn 1.000000 0.000000 0.000000
vn -1.000000 0.000000 -0.000000
vn -1.000000 0.000000 -0.000000
vn -1.000000 0.000000 -0.000000
vn -1.000000 0.000000 -0.000000
vn 1.000000 0.000000 0.000000
vn 1.000000 0.000000 0.000000
vn 1.000000 0.000000 0.000000
vn 1.000000 0.000000 0.000000
vn -1.000000 0.000000 -0.000000
vn -1.000000 0.000000 -0.000000
vn -1.000000 0.000000 0.000000
vn -1.000000 0.000000 0.000000
vn 1.000000 0.000000 0.000000
vn 1.000000 0.000000 0.000000
vn 1.000000 0.000000 0.000000
vn 1.000000 0.000000 0.000000
vn -1.000000 0.000000 0.000000
vn -1.000000 0.000000 0.000000
vn -1.000000 0.000000 0.000000
vn -1.000000 0.000000 0.000000
vn 1.000000 0.000000 0.000000
vn 1.000000 0.000000 0.000000
vn 1.000000 0.000000 0.000000
vn 1.000000 0.000000 0.000000
vn -1.000000 0.000000 0.000000
vn -1.000000 0.000000 0.000000
vn -1.000000 0.000000 -0.000000
vn -1.000000 0.000000 -0.000000
vn 1.000000 0.000000 0.000000
vn 1.000000 0.000000 0.000000
vn 1.000000 0.000000 0.000000
vn 1.000000 0.000000 0.000000
vn -1.000000 0.000000 -0.000000
vn -1.000000 0.000000 -0.000000
vn -1.000000 0.000000 -0.000000
vn -1.000000 0.000000 -0.000000
vn 1.000000 0.000000 0.000000
vn 1.000000 0.000000 0.000000
vn 1.000000 0.000000 0.000000
vn 1.000000 0.000000 0.000000
vn -1.000000 0.000000 -0.000000
vn -1.000000 0.000000 -0.000000
vn -1.000000 0.000000 0.000000
vn -1.000000 0.000000 0.000000
vn 1.000000 0.000000 0.000000
vn 1.000000 0.000000 0.000000
vn 1.000000 0.000000 0.000000
vn 1.000000 0.000000 0.000000
vn -1.000000 0.000000 0.000000
vn -1.000000 0.000000 0.000000
vn -1.000000 0.000000 0.000000
vn -1.000000 0.000000 0.000000
vn 1.000000 0.000000 0.000000
vn 1.000000 0.000000 0.000000
vn 1.000000 0.000000 0.000000
vn 1.000000 0.000000 0.000000
vn -1.000000 0.000000 0.000000
vn -1.000000 0.000000 0.000000
vn -1.000000 0.000000 -0.000000
vn -1.000000 0.000000 -0.000000
vn 1.000000 0.000000 0.000000
vn 1.000000 0.000000 0.000000
vn 1.000000 0.000000 0.000000
vn 1.000000 0.000000 0.000000
vn -1.000000 0.000000 -0.000000
vn -1.000000 0.000000 -0.000000
vn -1.000000 0.000000 -0.000000
vn -1.000000 0.000000 -0.000000
vn 0.000000 0.000000 -1.000000
vn 0.000000 0.000000 -1.000000
vn 0.000000 0.000000 -1.000000
vn 0.000000 0.000000 -1.000000
vn 0.000000 0.000000 1.000000
vn 0.000000 0.000000 1.000000
vn 0.000000 0.000000 1.000000
vn 0.000000 0.000000 1.000000
vn 0.442293 0.896870 0.000000
vn 0.442293 0.896870 0.000000
vn 0.442293 0.896870 0.000000
vn 0.442293 0.896870 0.000000
vn 0.000000 0.896870 -0.442293
vn 0.000000 0.896870 -0.442293
vn 0.000000 0.896870 -0.442293
vn 0.000000 0.896870 -0.442293
vn -0.442293 0.896870 -0.000000
vn -0.442293 0.896870 -0.000000
vn -0.442293 0.896870 -0.000000
vn -0.442293 0.896870 -0.000000
vn 0.000000 0.896870 0.442293
vn 0.000000 0.896870 0.442293
vn 0.000000 0.896870 0.442293
vn 0.000000 0.896870 0.442293
vn -0.529442 0.848346 -0.000000
vn -0.529442 0.848346 -0.000000
vn -0.529442 0.848346 -0.000000
vn -0.529442 0.848346 -0.000000
vn 0.000000 0.848346 -0.529442
vn 0.000000 0.848346 -0.529442
vn 0.000000 0.848346 -0.529442
vn 0.000000 0.848346 -0.529442
vn 0.529442 0.848346 0.000000
vn 0.529442 0.848346 0.000000
vn 0.529442 0.848346 0.000000
vn 0.529442 0.848346 0.000000
vn 0.000000 0.848346 0.529442
vn 0.000000 0.848346 0.529442
vn 0.000000 0.848346 0.529442
vn 0.000000 0.848346 0.529442
vn 0.000000 -1.000000 0.000000
vn 0.000000 -1.000000 0.000000
vn 0.000000 -1.000000 0.000000
vn 0.000000 -1.000000 0.000000
vn 0.000000 1.000000 0.000000
vn 0.000000 1.000000 0.000000
vn 0.000000 1.000000 0.000000
vn 0.000000 1.000000 0.000000
vn 0.000000 1.000000 0.000000
vn 0.000000 1.000000 0.000000
vn 0.000000 1.000000 0.000000
vn 0.000000 1.000000 0.000000
vn 0.000000 1.000000 -0.000000
vn 0.000000 1.000000 -0.000000
vn 0.000000 1.000000 -0.000000
vn 0.000000 1.000000 -0.000000
vn 0.000000 1.000000 0.000000
vn 0.000000 1.000000 0.000000
vn 0.000000 1.000000 0.000000
vn 0.000000 1.000000 0.000000
vn 1.000000 0.000000 0.000000
vn 1.000000 0.000000 0.000000
vn 1.000000 0.000000 0.000000
vn 1.000000 0.000000 0.000000
vn 0.000000 0.000000 -1.000000
vn 0.000000 0.000000 -1.000000
vn 0.000000 0.000000 -1.000000
vn 0.000000 0.000000 -1.000000
vn -1.000000 0.000000 -0.000000
vn -1.000000 0.000000 -0.000000
vn -1.000000 0.000000 -0.000000
vn -1.000000 0.000000 -0.000000
vn 0.000000 0.000000 1.000000
vn 0.000000 0.000000 1.000000
vn 0.000000 0.000000 1.000000
vn 0.000000 0.000000 1.000000
vn -0.468010 -0.883723 0.000000
vn -0.468010 -0.883723 0.000000
vn -0.468010 -0.883723 0.000000
vn -0.468010 -0.883723 0.000000
vn 0.000000 -0.883723 -0.468010
vn 0.000000 -0.883723 -0.468010
vn 0.000000 -0.883723 -0.468010
vn 0.000000 -0.883723 -0.468010
vn 0.468010 -0.883723 0.000000
vn 0.468010 -0.883723 0.000000
vn 0.468010 -0.883723 0.000000
vn 0.468010 -0.883723 0.000000
vn 0.000000 -0.883723 0.468010
vn 0.000000 -0.883723 0.468010
vn 0.000000 -0.883723 0.468010
vn 0.000000 -0.883723 0.468010
vn -1.000000 0.000000 -0.000000
vn -1.000000 0.000000 -0.000000
vn -1.000000 0.000000 -0.000000
vn -1.000000 0.000000 -0.000000
vn 0.000000 0.000000 -1.000000
vn 0.000000 0.000000 -1.000000
vn 0.000000 0.000000 -1.000000
vn 0.000000 0.000000 -1.000000
vn 1.000000 0.000000 0.000000
vn 1.000000 0.000000 0.000000
vn 1.000000 0.000000 0.000000
vn 1.000000 0.000000 0.000000
vn 0.000000 0.000000 1.000000
vn 0.000000 0.000000 1.000000
vn 0.000000 0.000000 1.000000
vn 0.000000 0.000000 1.000000
vn -0.583311 0.812249 -0.000000
vn -0.583311 0.812249 -0.000000
vn -0.583311 0.812249 -0.000000
vn -0.583311 0.812249 -0.000000
vn 0.000000 0.812249 -0.583311
vn 0.000000 0.812249 -0.583311
vn 0.000000 0.812249 -0.583311
vn 0.000000 0.812249 -0.583311
vn 0.583311 0.812249 0.000000
vn 0.583311 0.812249 0.000000
vn 0.583311 0.812249 0.000000
vn 0.583311 0.812249 0.000000
vn 0.000000 0.812249 0.583311
vn 0.000000 0.812249 0.583311
vn 0.000000 0.812249 0.583311
vn 0.000000 0.812249 0.583311
vn 0.166259 -0.986082 0.000000
vn 0.166259 -0.986082 0.000000
vn 0.166259 -0.986082 0.000000
vn 0.166259 -0.986082 0.000000
vn 0.000000 -0.974522 -0.224291
vn 0.000000 -0.974522 -0.224291
vn 0.000000 -0.974522 -0.224291
vn 0.000000 -0.974522 -0.224291
vn 0.000000 -0.974522 0.224291
vn 0.000000 -0.974522 0.224291
vn 0.000000 -0.974522 0.224291
vn 0.000000 -0.974522 0.224291
vn -0.166259 -0.986082 0.000000
vn -0.166259 -0.986082 0.000000
vn -0.166259 -0.986082 0.000000
vn -0.166259 -0.986082 0.000000
vn -0.045440 0.739646 0.671461
vn -0.049207 0.739543 0.671309
vn -0.110883 0.730288 0.674081
vn -0.179786 0.719534 0.670782
vn 0.048622 -0.739117 -0.671820
vn 0.045563 -0.739213 -0.671929
vn 0.181168 -0.720591 -0.669274
vn 0.111466 -0.730921 -0.673298
vn -0.049207 0.739543 -0.671309
vn -0.045440 0.739646 -0.671461
vn -0.179786 0.719534 -0.670782
vn -0.110883 0.730288 -0.674081
vn 0.111466 -0.730921 0.673298
vn 0.181168 -0.720591 0.669274
vn 0.045563 -0.739213 0.671929
vn 0.048622 -0.739117 0.671820
vn -0.179786 0.719534 0.670782
vn -0.110883 0.730288 0.674081
vn -0.470462 0.630592 0.617267
vn -0.470462 0.630592 0.617267
vn -0.110883 0.730288 -0.674081
vn -0.179786 0.719534 -0.670782
vn -0.470462 0.630592 -0.617267
vn -0.470462 0.630592 -0.617267
vn 0.045563 -0.739213 -0.671929
vn 0.048622 -0.739117 -0.671820
vn 0.514872 -0.636096 -0.574707
vn 0.048622 -0.739117 0.671820
vn 0.045563 -0.739213 0.671929
vn 0.514872 -0.636096 0.574707
vn 0.111466 -0.730921 -0.673298
vn 0.181168 -0.720591 -0.669274
vn 0.474699 -0.632644 -0.611901
vn 0.474699 -0.632644 -0.611901
vn -0.045440 0.739646 -0.671461
vn -0.049207 0.739543 -0.671309
vn -0.512961 0.639228 -0.572939
vn -0.049207 0.739543 0.671309
vn -0.045440 0.739646 0.671461
vn -0.512961 0.639228 0.572939
vn 0.181168 -0.720591 0.669274
vn 0.111466 -0.730921 0.673298
vn 0.474699 -0.632644 0.611901
vn 0.474699 -0.632644 0.611901
vn -0.617591 -0.591963 0.517843
vn -0.617591 -0.591963 0.517843
vn -0.617591 -0.591963 0.517843
vn -0.617591 -0.591963 -0.517843
vn -0.617591 -0.591963 -0.517843
vn -0.617591 -0.591963 -0.517843
vn 0.634761 0.343041 -0.692388
vn 0.634761 0.343041 -0.692388
vn 0.634761 0.343041 -0.692388
vn 0.634761 0.343041 0.692388
vn 0.634761 0.343041 0.692388
vn 0.634761 0.343041 0.692388
vn 0.620886 0.598234 -0.506574
vn 0.620886 0.598234 -0.506574
vn 0.620886 0.598234 -0.506574
vn -0.630801 -0.345770 -0.694647
vn -0.630801 -0.345770 -0.694647
vn -0.630801 -0.345770 -0.694647
vn -0.630801 -0.345770 0.694647
vn -0.630801 -0.345770 0.694647
vn -0.630801 -0.345770 0.694647
vn 0.620886 0.598234 0.506574
vn 0.620886 0.598234 0.506574
vn 0.620886 0.598234 0.506574
s off
g pCylinder3
usemtl initialShadingGroup
f 18/1/1 17/2/2 19/3/3 20/4/4
f 20/4/5 19/3/6 21/5/7 22/6/8
f 22/6/9 21/5/10 23/7/11 24/8/12
f 24/8/13 23/7/14 25/9/15 26/10/16
f 26/10/17 25/9/18 27/11/19 28/12/20
f 30/13/21 29/14/22 31/15/23 32/16/24
f 32/16/25 31/15/26 17/2/27 18/1/28
f 16/17/29 9/18/30 1/19/31 8/20/32
f 9/18/33 10/21/34 2/22/35 1/19/36
f 10/21/37 11/23/38 3/24/39 2/22/40
f 11/23/41 12/25/42 4/26/43 3/24/44
f 12/25/45 13/27/46 5/28/47 4/26/48
f 13/27/49 14/29/50 6/30/51 5/28/52
f 14/29/53 15/31/54 7/32/55 6/30/56
f 15/31/57 16/17/58 8/20/59 7/32/60
f 32/16/61 18/1/62 9/33/63 16/34/64
f 17/2/65 1/35/66 2/36/67 19/3/68
f 18/1/69 20/4/70 10/37/71 9/33/72
f 19/3/73 2/36/74 3/38/75 21/5/76
f 20/4/77 22/6/78 11/39/79 10/37/80
f 21/5/81 3/38/82 4/40/83 23/7/84
f 22/6/85 24/8/86 12/41/87 11/39/88
f 23/7/89 4/40/90 5/42/91 25/9/92
f 24/8/93 26/10/94 13/43/95 12/41/96
f 25/9/97 5/42/98 6/44/99 27/11/100
f 26/10/101 28/12/102 14/45/103 13/43/104
f 27/11/105 6/44/106 7/46/107 29/14/108
f 28/12/109 30/13/110 15/47/111 14/45/112
f 29/14/113 7/46/114 8/48/115 31/15/116
f 30/13/117 32/16/118 16/34/119 15/47/120
f 31/15/121 8/48/122 1/35/123 17/2/124
f 33/49/125 34/50/126 36/51/127 35/52/128
f 37/53/129 38/54/130 40/55/131 39/56/132
f 34/50/133 40/57/134 38/58/135 36/51/136
f 39/59/137 33/49/138 35/52/139 37/60/140
f 35/52/141 36/51/142 42/61/143 41/62/144
f 36/51/145 38/54/146 43/63/147 42/61/148
f 38/54/149 37/53/150 44/64/151 43/63/152
f 37/53/153 35/52/154 41/62/155 44/64/156
f 39/56/157 40/55/158 45/65/159 46/66/160
f 40/55/161 34/67/162 47/68/163 45/65/164
f 34/67/165 33/69/166 48/70/167 47/68/168
f 33/69/169 39/56/170 46/66/171 48/70/172
f 66/71/173 65/72/174 67/73/175 68/74/176
f 41/62/177 42/61/178 49/75/179 50/76/180
f 42/61/181 43/63/182 51/77/183 49/75/184
f 43/63/185 44/64/186 52/78/187 51/77/188
f 44/64/189 41/62/190 50/76/191 52/78/192
f 50/76/193 49/75/194 53/79/195 54/80/196
f 49/75/197 51/77/198 55/81/199 53/79/200
f 51/77/201 52/78/202 56/82/203 55/81/204
f 52/78/205 50/76/206 54/80/207 56/82/208
f 46/66/209 45/65/210 57/83/211 58/84/212
f 45/65/213 47/68/214 59/85/215 57/83/216
f 47/68/217 48/70/218 60/86/219 59/85/220
f 48/70/221 46/66/222 58/84/223 60/86/224
f 58/84/225 57/83/226 61/87/227 62/88/228
f 57/83/229 59/85/230 63/89/231 61/87/232
f 59/85/233 60/86/234 64/90/235 63/89/236
f 60/86/237 58/84/238 62/88/239 64/90/240
f 62/88/241 61/87/242 65/72/243 66/71/244
f 61/87/245 63/89/246 67/73/247 65/72/248
f 63/89/249 64/90/250 68/74/251 67/73/252
f 64/90/253 62/88/254 66/71/255 68/74/256
f 30/13/257 28/12/258 54/80/259 53/79/260
f 29/14/261 30/13/262 53/79/263 55/81/264
f 28/12/265 27/11/266 56/82/267 54/80/268
f 27/11/269 29/14/270 55/81/271 56/82/272
f 69/91/273 70/92/274 72/93/275 71/94/276
f 73/95/277 74/96/278 76/97/279 75/98/280
f 70/92/281 76/99/282 74/100/283 72/93/284
f 75/101/285 69/91/286 71/94/287 73/102/288
f 71/94/289 72/93/290 78/103/291 77/104/292
f 72/93/293 74/96/294 79/105/295 78/103/296
f 74/96/297 73/95/298 79/105/299
f 73/95/300 71/94/301 77/104/302
f 75/98/303 76/97/304 81/106/305 80/107/306
f 76/97/307 70/108/308 81/106/309
f 70/108/310 69/109/311 82/110/312
f 69/109/313 75/98/314 80/107/315 82/110/316
f 77/104/317 78/103/318 83/111/319
f 78/103/320 79/105/321 83/111/322
f 79/105/323 73/95/324 83/111/325
f 73/95/326 77/104/327 83/111/328
f 80/107/329 81/106/330 84/112/331
f 81/106/332 70/108/333 84/112/334
f 70/108/335 82/110/336 84/112/337
f 82/110/338 80/107/339 84/112/340
