# This file uses centimeters as units for non-parametric coordinates.

mtllib denchi.mtl
g default
v 0.951057 -1.000000 -0.309017
v 0.809018 -1.000000 -0.587786
v 0.587786 -1.000000 -0.809017
v 0.309017 -1.000000 -0.951057
v 0.000000 -1.000000 -1.000000
v -0.309017 -1.000000 -0.951057
v -0.587785 -1.000000 -0.809017
v -0.809017 -1.000000 -0.587785
v -0.951057 -1.000000 -0.309017
v -1.000000 -1.000000 0.000000
v -0.951057 -1.000000 0.309017
v -0.809017 -1.000000 0.587785
v -0.587785 -1.000000 0.809017
v -0.309017 -1.000000 0.951057
v -0.000000 -1.000000 1.000000
v 0.309017 -1.000000 0.951057
v 0.587785 -1.000000 0.809017
v 0.809017 -1.000000 0.587785
v 0.951057 -1.000000 0.309017
v 1.000000 -1.000000 0.000000
v 0.951057 4.376611 -0.309017
v 0.809018 4.376611 -0.587786
v 0.587786 4.376611 -0.809017
v 0.309017 4.376611 -0.951057
v 0.000000 4.376611 -1.000000
v -0.309017 4.376611 -0.951057
v -0.587785 4.376611 -0.809017
v -0.809017 4.376611 -0.587785
v -0.951057 4.376611 -0.309017
v -1.000000 4.376611 0.000000
v -0.951057 4.376611 0.309017
v -0.809017 4.376611 0.587785
v -0.587785 4.376611 0.809017
v -0.309017 4.376611 0.951057
v -0.000000 4.376611 1.000000
v 0.309017 4.376611 0.951057
v 0.587785 4.376611 0.809017
v 0.809017 4.376611 0.587785
v 0.951057 4.376611 0.309017
v 1.000000 4.376611 0.000000
v 0.123558 4.376611 0.380273
v 0.235022 4.376611 0.323480
v 0.323480 4.376611 0.235022
v 0.380273 4.376611 0.123558
v 0.399843 4.376611 -0.000000
v 0.380273 4.376611 -0.123558
v 0.323480 4.376611 -0.235022
v 0.235022 4.376611 -0.323480
v 0.123558 4.376611 -0.380273
v -0.000000 4.376611 -0.399843
v -0.123558 4.376611 -0.380273
v -0.235022 4.376611 -0.323480
v -0.323480 4.376611 -0.235022
v -0.380273 4.376611 -0.123558
v -0.399843 4.376611 -0.000000
v -0.380273 4.376611 0.123558
v -0.323480 4.376611 0.235022
v -0.235022 4.376611 0.323480
v -0.123558 4.376611 0.380273
v -0.000000 4.376611 0.399843
v 0.123558 4.646279 0.380273
v 0.235022 4.646279 0.323480
v 0.323480 4.646279 0.235022
v 0.380273 4.646279 0.123558
v 0.399843 4.646279 0.000000
v 0.380273 4.646279 -0.123558
v 0.323480 4.646279 -0.235022
v 0.235022 4.646279 -0.323480
v 0.123558 4.646279 -0.380273
v -0.000000 4.646279 -0.399843
v -0.123558 4.646279 -0.380273
v -0.235022 4.646279 -0.323480
v -0.323480 4.646279 -0.235022
v -0.380273 4.646279 -0.123558
v -0.399843 4.646279 0.000000
v -0.380273 4.646279 0.123558
v -0.323480 4.646279 0.235022
v -0.235022 4.646279 0.323480
v -0.123558 4.646279 0.380273
v -0.000000 4.646279 0.399843
v 0.079067 4.646279 0.243342
v 0.150394 4.646279 0.206999
v 0.206999 4.646279 0.150394
v 0.243342 4.646279 0.079067
v 0.255865 4.646279 -0.000000
v 0.243342 4.646279 -0.079067
v 0.206999 4.646279 -0.150394
v 0.150394 4.646279 -0.206999
v 0.079067 4.646279 -0.243342
v -0.000000 4.646279 -0.255865
v -0.079067 4.646279 -0.243342
v -0.150394 4.646279 -0.206999
v -0.206999 4.646279 -0.150394
v -0.243342 4.646279 -0.079067
v -0.255865 4.646279 -0.000000
v -0.243342 4.646279 0.079067
v -0.206999 4.646279 0.150394
v -0.150394 4.646279 0.206999
v -0.079067 4.646279 0.243342
v -0.000000 4.646279 0.255865
v 0.079067 4.819419 0.243342
v 0.150394 4.819419 0.206999
v 0.206999 4.819419 0.150394
v 0.243342 4.819419 0.079067
v 0.255865 4.819419 0.000000
v 0.243342 4.819419 -0.079067
v 0.206999 4.819419 -0.150394
v 0.150394 4.819419 -0.206999
v 0.079067 4.819419 -0.243342
v -0.000000 4.819419 -0.255865
v -0.079067 4.819419 -0.243342
v -0.150394 4.819419 -0.206999
v -0.206999 4.819419 -0.150394
v -0.243342 4.819419 -0.079067
v -0.255865 4.819419 0.000000
v -0.243342 4.819419 0.079067
v -0.206999 4.819419 0.150394
v -0.150394 4.819419 0.206999
v -0.079067 4.819419 0.243342
v -0.000000 4.819419 0.255865
vt 0.621548 0.179340
vt 0.603395 0.143713
vt 0.575121 0.115439
vt 0.539493 0.097286
vt 0.500000 0.091031
vt 0.460507 0.097286
vt 0.424879 0.115439
vt 0.396605 0.143713
vt 0.378452 0.179340
vt 0.372197 0.218834
vt 0.378452 0.258327
vt 0.396605 0.293954
vt 0.424879 0.322228
vt 0.460507 0.340381
vt 0.500000 0.346637
vt 0.539493 0.340381
vt 0.575121 0.322228
vt 0.603395 0.293954
vt 0.621548 0.258327
vt 0.627803 0.218834
vt 0.232418 0.346637
vt 0.259176 0.346637
vt 0.285935 0.346637
vt 0.312693 0.346637
vt 0.339451 0.346637
vt 0.366209 0.346637
vt 0.392967 0.346637
vt 0.419725 0.346637
vt 0.446484 0.346637
vt 0.473242 0.346637
vt 0.500000 0.346637
vt 0.526758 0.346637
vt 0.553516 0.346637
vt 0.580274 0.346637
vt 0.607033 0.346637
vt 0.633791 0.346637
vt 0.660549 0.346637
vt 0.687307 0.346637
vt 0.714065 0.346637
vt 0.740823 0.346637
vt 0.767582 0.346637
vt 0.232418 0.654132
vt 0.259176 0.654132
vt 0.285935 0.654132
vt 0.312693 0.654132
vt 0.339451 0.654132
vt 0.366209 0.654132
vt 0.392967 0.654132
vt 0.419725 0.654132
vt 0.446484 0.654132
vt 0.473242 0.654132
vt 0.500000 0.654132
vt 0.526758 0.654132
vt 0.553516 0.654132
vt 0.580274 0.654132
vt 0.607033 0.654132
vt 0.633791 0.654132
vt 0.660549 0.654132
vt 0.687307 0.654132
vt 0.714065 0.654132
vt 0.740823 0.654132
vt 0.767582 0.654132
vt 0.621548 0.741673
vt 0.603395 0.706046
vt 0.575121 0.677772
vt 0.539493 0.659618
vt 0.500000 0.653363
vt 0.460507 0.659618
vt 0.424879 0.677772
vt 0.396605 0.706046
vt 0.378452 0.741673
vt 0.372197 0.781166
vt 0.378452 0.820660
vt 0.396605 0.856287
vt 0.424879 0.884561
vt 0.460507 0.902714
vt 0.500000 0.908969
vt 0.539493 0.902714
vt 0.575121 0.884561
vt 0.603395 0.856287
vt 0.621548 0.820660
vt 0.627803 0.781166
vt 0.539493 0.659618
vt 0.575121 0.677772
vt 0.603395 0.706046
vt 0.621548 0.741673
vt 0.627803 0.781166
vt 0.621548 0.820660
vt 0.603395 0.856287
vt 0.575121 0.884561
vt 0.539493 0.902714
vt 0.500000 0.908969
vt 0.460507 0.902714
vt 0.424879 0.884561
vt 0.396605 0.856287
vt 0.378452 0.820660
vt 0.372197 0.781166
vt 0.378452 0.741673
vt 0.396605 0.706046
vt 0.424879 0.677772
vt 0.460507 0.659618
vt 0.500000 0.653363
vt 0.539493 0.659618
vt 0.575121 0.677772
vt 0.603395 0.706046
vt 0.621548 0.741673
vt 0.627803 0.781166
vt 0.621548 0.820660
vt 0.603395 0.856287
vt 0.575121 0.884561
vt 0.539493 0.902714
vt 0.500000 0.908969
vt 0.460507 0.902714
vt 0.424879 0.884561
vt 0.396605 0.856287
vt 0.378452 0.820660
vt 0.372197 0.781166
vt 0.378452 0.741673
vt 0.396605 0.706046
vt 0.424879 0.677772
vt 0.460507 0.659618
vt 0.500000 0.653363
vt 0.539493 0.659618
vt 0.575121 0.677772
vt 0.603395 0.706046
vt 0.621548 0.741673
vt 0.627803 0.781166
vt 0.621548 0.820660
vt 0.603395 0.856287
vt 0.575121 0.884561
vt 0.539493 0.902714
vt 0.500000 0.908969
vt 0.460507 0.902714
vt 0.424879 0.884561
vt 0.396605 0.856287
vt 0.378452 0.820660
vt 0.372197 0.781166
vt 0.378452 0.741673
vt 0.396605 0.706046
vt 0.424879 0.677772
vt 0.460507 0.659618
vt 0.500000 0.653363
vt 0.539493 0.659618
vt 0.575121 0.677772
vt 0.603395 0.706046
vt 0.621548 0.741673
vt 0.627803 0.781166
vt 0.621548 0.820660
vt 0.603395 0.856287
vt 0.575121 0.884561
vt 0.539493 0.902714
vt 0.500000 0.908969
vt 0.460507 0.902714
vt 0.424879 0.884561
vt 0.396605 0.856287
vt 0.378452 0.820660
vt 0.372197 0.781166
vt 0.378452 0.741673
vt 0.396605 0.706046
vt 0.424879 0.677772
vt 0.460507 0.659618
vt 0.500000 0.653363
vn 0.951057 0.000000 -0.309016
vn 0.951057 0.000000 -0.309016
vn 0.809017 0.000000 -0.587785
vn 0.809017 0.000000 -0.587785
vn 0.587785 0.000000 -0.809017
vn 0.587785 0.000000 -0.809017
vn 0.309017 0.000000 -0.951057
vn 0.309017 0.000000 -0.951057
vn -0.000000 0.000000 -1.000000
vn -0.000000 0.000000 -1.000000
vn -0.309017 0.000000 -0.951056
vn -0.309017 0.000000 -0.951056
vn -0.587785 0.000000 -0.809017
vn -0.587785 0.000000 -0.809017
vn -0.809017 0.000000 -0.587785
vn -0.809017 0.000000 -0.587785
vn -0.951057 0.000000 -0.309017
vn -0.951057 0.000000 -0.309017
vn -1.000000 0.000000 0.000000
vn -1.000000 0.000000 0.000000
vn -0.951057 0.000000 0.309017
vn -0.951057 0.000000 0.309017
vn -0.809017 0.000000 0.587785
vn -0.809017 0.000000 0.587785
vn -0.587785 0.000000 0.809017
vn -0.587785 0.000000 0.809017
vn -0.309017 0.000000 0.951057
vn -0.309017 0.000000 0.951057
vn 0.000000 0.000000 1.000000
vn 0.000000 0.000000 1.000000
vn 0.309017 0.000000 0.951057
vn 0.309017 0.000000 0.951057
vn 0.587785 0.000000 0.809017
vn 0.587785 0.000000 0.809017
vn 0.809017 0.000000 0.587785
vn 0.809017 0.000000 0.587785
vn 0.951057 0.000000 0.309017
vn 0.951057 0.000000 0.309017
vn 1.000000 0.000000 0.000001
vn 1.000000 0.000000 0.000001
vn 0.000000 -1.000000 0.000000
vn 0.000000 -1.000000 0.000000
vn 0.000000 -1.000000 0.000000
vn 0.000000 -1.000000 0.000001
vn 0.000000 -1.000000 0.000001
vn 0.000000 -1.000000 0.000000
vn 0.000000 -1.000000 0.000000
vn 0.000000 -1.000000 -0.000000
vn 0.000000 -1.000000 -0.000000
vn 0.000000 -1.000000 -0.000000
vn 0.000000 -1.000000 0.000000
vn 0.000000 -1.000000 0.000000
vn 0.000000 -1.000000 0.000000
vn 0.000000 -1.000000 0.000000
vn 0.000000 -1.000000 0.000000
vn 0.000000 -1.000000 0.000000
vn 0.000000 -1.000000 0.000000
vn 0.000000 -1.000000 -0.000000
vn 0.000000 -1.000000 -0.000001
vn 0.000000 -1.000000 -0.000001
vn 0.000000 1.000000 -0.000000
vn 0.000000 1.000000 0.000000
vn 0.000000 1.000000 0.000000
vn 0.000000 1.000000 0.000000
vn 0.000000 1.000000 0.000000
vn 0.000000 1.000000 0.000002
vn 0.000000 1.000000 0.000002
vn 0.000000 1.000000 0.000000
vn 0.000000 1.000000 -0.000001
vn 0.000000 1.000000 -0.000000
vn 0.000000 1.000000 0.000000
vn 0.000000 1.000000 -0.000001
vn 0.000000 1.000000 -0.000002
vn 0.000000 1.000000 -0.000001
vn 0.000000 1.000000 0.000000
vn 0.000000 1.000000 0.000000
vn 0.000000 1.000000 0.000000
vn 0.000000 1.000000 -0.000000
vn 0.000000 1.000000 -0.000008
vn 0.000000 1.000000 -0.000008
vn 0.000000 1.000000 0.000000
vn 0.000000 1.000000 0.000000
vn 0.000000 1.000000 0.000000
vn 0.000000 1.000000 0.000000
vn 0.000000 1.000000 0.000000
vn 0.000000 1.000000 0.000000
vn 0.000000 1.000000 0.000000
vn 0.000000 1.000000 0.000000
vn 0.000000 1.000000 -0.000001
vn 0.000000 1.000000 -0.000001
vn 0.000000 1.000000 -0.000001
vn 0.000000 1.000000 -0.000001
vn 0.000000 1.000000 0.000001
vn 0.000000 1.000000 0.000001
vn 0.000000 1.000000 0.000001
vn 0.000000 1.000000 0.000001
vn 0.000000 1.000000 -0.000001
vn 0.000000 1.000000 -0.000001
vn 0.000000 1.000000 -0.000001
vn 0.000000 1.000000 -0.000001
vn 0.000000 1.000000 -0.000000
vn 0.000000 1.000000 -0.000000
vn 0.000000 1.000000 -0.000000
vn 0.000000 1.000000 -0.000000
vn 0.000000 1.000000 0.000000
vn 0.000000 1.000000 0.000000
vn 0.000000 1.000000 0.000000
vn 0.000000 1.000000 0.000000
vn 0.000000 1.000000 0.000000
vn 0.000000 1.000000 0.000000
vn 0.000000 1.000000 0.000000
vn 0.000000 1.000000 0.000000
vn 0.000000 1.000000 0.000000
vn 0.000000 1.000000 0.000000
vn 0.000000 1.000000 0.000000
vn 0.000000 1.000000 0.000000
vn 0.000000 1.000000 0.000000
vn 0.000000 1.000000 0.000000
vn 0.000000 1.000000 0.000000
vn 0.000000 1.000000 0.000000
vn 0.000000 1.000000 0.000001
vn 0.000000 1.000000 0.000001
vn 0.000000 1.000000 0.000001
vn 0.000000 1.000000 0.000001
vn 0.000000 1.000000 -0.000000
vn 0.000000 1.000000 -0.000000
vn 0.000000 1.000000 -0.000000
vn 0.000000 1.000000 -0.000000
vn 0.000000 1.000000 0.000001
vn 0.000000 1.000000 0.000001
vn 0.000000 1.000000 0.000001
vn 0.000000 1.000000 0.000001
vn 0.000000 1.000000 -0.000001
vn 0.000000 1.000000 -0.000001
vn 0.000000 1.000000 -0.000001
vn 0.000000 1.000000 -0.000001
vn 0.000000 1.000000 0.000001
vn 0.000000 1.000000 0.000001
vn 0.000000 1.000000 0.000001
vn 0.000000 1.000000 0.000001
vn 0.000000 1.000000 0.000000
vn 0.000000 1.000000 0.000000
vn 0.000000 1.000000 0.000000
vn 0.000000 1.000000 0.000000
vn 0.000000 1.000000 -0.000002
vn 0.000000 1.000000 -0.000002
vn 0.000000 1.000000 -0.000002
vn 0.000000 1.000000 -0.000002
vn 0.000000 1.000000 0.000000
vn 0.000000 1.000000 0.000000
vn 0.000000 1.000000 0.000000
vn 0.000000 1.000000 0.000000
vn 0.000000 1.000000 0.000000
vn 0.000000 1.000000 0.000000
vn 0.000000 1.000000 0.000000
vn 0.000000 1.000000 0.000000
vn 0.000000 1.000000 0.000000
vn 0.000000 1.000000 0.000000
vn 0.000000 1.000000 0.000000
vn 0.000000 1.000000 0.000000
vn 0.309017 -0.000000 0.951057
vn 0.309017 -0.000000 0.951057
vn 0.587785 -0.000000 0.809017
vn 0.587785 -0.000000 0.809017
vn 0.809017 -0.000000 0.587785
vn 0.809017 -0.000000 0.587785
vn 0.951057 -0.000000 0.309017
vn 0.951057 -0.000000 0.309017
vn 1.000000 0.000000 0.000001
vn 1.000000 -0.000000 0.000001
vn 0.951057 0.000000 -0.309016
vn 0.951057 0.000000 -0.309016
vn 0.809017 0.000000 -0.587785
vn 0.809017 0.000000 -0.587785
vn 0.587785 0.000000 -0.809017
vn 0.587785 0.000000 -0.809017
vn 0.309017 0.000000 -0.951057
vn 0.309017 0.000000 -0.951057
vn 0.000000 0.000000 -1.000000
vn 0.000000 0.000000 -1.000000
vn -0.309017 0.000000 -0.951057
vn -0.309017 0.000000 -0.951057
vn -0.587785 0.000000 -0.809017
vn -0.587785 0.000000 -0.809017
vn -0.809017 0.000000 -0.587785
vn -0.809017 0.000000 -0.587785
vn -0.951057 0.000000 -0.309017
vn -0.951057 0.000000 -0.309017
vn -1.000000 0.000000 -0.000000
vn -1.000000 0.000000 0.000000
vn -0.951057 -0.000000 0.309017
vn -0.951056 -0.000000 0.309017
vn -0.809017 -0.000000 0.587785
vn -0.809017 -0.000000 0.587785
vn -0.587785 -0.000000 0.809017
vn -0.587785 -0.000000 0.809017
vn -0.309017 -0.000000 0.951057
vn -0.309017 -0.000000 0.951057
vn 0.000000 -0.000000 1.000000
vn 0.000000 -0.000000 1.000000
vn 0.000000 1.000000 0.000002
vn 0.000000 1.000000 0.000002
vn 0.000000 1.000000 0.000002
vn 0.000000 1.000000 0.000002
vn 0.000000 1.000000 0.000002
vn 0.000000 1.000000 0.000002
vn 0.000000 1.000000 0.000002
vn 0.000000 1.000000 0.000002
vn 0.000000 1.000000 0.000000
vn 0.000000 1.000000 0.000000
vn 0.000000 1.000000 0.000000
vn 0.000000 1.000000 0.000000
vn 0.000000 1.000000 -0.000004
vn 0.000000 1.000000 -0.000004
vn 0.000000 1.000000 -0.000004
vn 0.000000 1.000000 -0.000004
vn 0.000000 1.000000 -0.000001
vn 0.000000 1.000000 -0.000001
vn 0.000000 1.000000 -0.000001
vn 0.000000 1.000000 -0.000001
vn 0.000000 1.000000 0.000001
vn 0.000000 1.000000 0.000001
vn 0.000000 1.000000 0.000001
vn 0.000000 1.000000 0.000001
vn 0.000000 1.000000 0.000000
vn 0.000000 1.000000 0.000000
vn 0.000000 1.000000 0.000000
vn 0.000000 1.000000 0.000000
vn 0.000000 1.000000 0.000000
vn 0.000000 1.000000 0.000000
vn 0.000000 1.000000 0.000000
vn 0.000000 1.000000 0.000000
vn 0.000000 1.000000 0.000002
vn 0.000000 1.000000 0.000002
vn 0.000000 1.000000 0.000002
vn 0.000000 1.000000 0.000002
vn 0.000000 1.000000 0.000000
vn 0.000000 1.000000 0.000000
vn 0.000000 1.000000 0.000000
vn 0.000000 1.000000 0.000000
vn 0.000000 1.000000 -0.000002
vn 0.000000 1.000000 -0.000002
vn 0.000000 1.000000 -0.000002
vn 0.000000 1.000000 -0.000002
vn 0.000000 1.000000 -0.000002
vn 0.000000 1.000000 -0.000002
vn 0.000000 1.000000 -0.000002
vn 0.000000 1.000000 -0.000002
vn 0.000000 1.000000 0.000000
vn 0.000000 1.000000 0.000000
vn 0.000000 1.000000 0.000000
vn 0.000000 1.000000 0.000000
vn 0.000000 1.000000 0.000004
vn 0.000000 1.000000 0.000004
vn 0.000000 1.000000 0.000004
vn 0.000000 1.000000 0.000004
vn 0.000000 1.000000 0.000000
vn 0.000000 1.000000 0.000000
vn 0.000000 1.000000 0.000000
vn 0.000000 1.000000 0.000000
vn 0.000000 1.000000 0.000000
vn 0.000000 1.000000 0.000000
vn 0.000000 1.000000 0.000000
vn 0.000000 1.000000 0.000000
vn 0.000000 1.000000 0.000000
vn 0.000000 1.000000 0.000000
vn 0.000000 1.000000 0.000000
vn 0.000000 1.000000 0.000000
vn 0.000000 1.000000 0.000000
vn 0.000000 1.000000 0.000000
vn 0.000000 1.000000 0.000000
vn 0.000000 1.000000 0.000000
vn 0.000000 1.000000 0.000000
vn 0.000000 1.000000 0.000000
vn 0.000000 1.000000 0.000000
vn 0.000000 1.000000 0.000000
vn 0.000000 1.000000 0.000000
vn 0.000000 1.000000 0.000000
vn 0.000000 1.000000 0.000000
vn 0.000000 1.000000 0.000000
vn 0.309017 -0.000001 0.951056
vn 0.309017 -0.000001 0.951056
vn 0.587785 -0.000000 0.809017
vn 0.587785 -0.000000 0.809017
vn 0.809017 -0.000000 0.587785
vn 0.809017 -0.000000 0.587785
vn 0.951057 -0.000000 0.309017
vn 0.951056 -0.000000 0.309017
vn 1.000000 0.000000 0.000001
vn 1.000000 0.000000 0.000001
vn 0.951057 0.000000 -0.309016
vn 0.951057 0.000000 -0.309015
vn 0.809017 0.000000 -0.587785
vn 0.809017 0.000000 -0.587785
vn 0.587785 0.000000 -0.809017
vn 0.587785 0.000000 -0.809017
vn 0.309016 0.000001 -0.951057
vn 0.309016 0.000001 -0.951057
vn 0.000000 0.000001 -1.000000
vn 0.000000 0.000001 -1.000000
vn -0.309017 0.000001 -0.951056
vn -0.309017 0.000001 -0.951056
vn -0.587785 0.000000 -0.809017
vn -0.587785 0.000000 -0.809017
vn -0.809017 0.000000 -0.587785
vn -0.809017 0.000000 -0.587785
vn -0.951057 0.000000 -0.309017
vn -0.951057 0.000000 -0.309017
vn -1.000000 0.000000 -0.000000
vn -1.000000 0.000000 0.000000
vn -0.951057 -0.000000 0.309017
vn -0.951056 -0.000000 0.309017
vn -0.809017 -0.000000 0.587785
vn -0.809017 -0.000000 0.587785
vn -0.587785 -0.000000 0.809017
vn -0.587785 -0.000000 0.809017
vn -0.309016 -0.000001 0.951057
vn -0.309016 -0.000001 0.951057
vn 0.000000 -0.000001 1.000000
vn 0.000000 -0.000001 1.000000
s 1
g pCylinder1
usemtl blinn1SG
f 21/42/1 1/21/2 2/22/3 22/43/4
f 22/43/4 2/22/3 3/23/5 23/44/6
f 23/44/6 3/23/5 4/24/7 24/45/8
f 24/45/8 4/24/7 5/25/9 25/46/10
f 25/46/10 5/25/9 6/26/11 26/47/12
f 26/47/12 6/26/11 7/27/13 27/48/14
f 27/48/14 7/27/13 8/28/15 28/49/16
f 28/49/16 8/28/15 9/29/17 29/50/18
f 29/50/18 9/29/17 10/30/19 30/51/20
f 30/51/20 10/30/19 11/31/21 31/52/22
f 31/52/22 11/31/21 12/32/23 32/53/24
f 32/53/24 12/32/23 13/33/25 33/54/26
f 33/54/26 13/33/25 14/34/27 34/55/28
f 34/55/28 14/34/27 15/35/29 35/56/30
f 35/56/30 15/35/29 16/36/31 36/57/32
f 36/57/32 16/36/31 17/37/33 37/58/34
f 37/58/34 17/37/33 18/38/35 38/59/36
f 38/59/36 18/38/35 19/39/37 39/60/38
f 39/60/38 19/39/37 20/40/39 40/61/40
f 40/61/40 20/40/39 1/41/2 21/62/1
s 2
f 16/16/41 15/15/42 14/14/43 13/13/44
f 16/16/41 13/13/44 12/12/45 11/11/46
f 16/16/41 11/11/46 10/10/47 9/9/48
f 16/16/41 9/9/48 8/8/49 7/7/50
f 16/16/41 7/7/50 6/6/51 5/5/52
f 16/16/41 5/5/52 4/4/53 3/3/54
f 16/16/41 3/3/54 2/2/55 1/1/56
f 16/16/41 1/1/56 20/20/57 19/19/58
f 16/16/41 19/19/58 18/18/59 17/17/60
s 3
f 120/162/61 101/143/62 102/144/63 103/145/64
f 120/162/61 103/145/64 104/146/65 105/147/66
f 120/162/61 105/147/66 106/148/67 107/149/68
f 120/162/61 107/149/68 108/150/69 109/151/70
f 120/162/61 109/151/70 110/152/71 111/153/72
f 120/162/61 111/153/72 112/154/73 113/155/74
f 120/162/61 113/155/74 114/156/75 115/157/76
f 120/162/61 115/157/76 116/158/77 117/159/78
f 120/162/61 117/159/78 118/160/79 119/161/80
s off
f 41/83/81 36/66/82 37/65/83 42/84/84
f 42/84/85 37/65/86 38/64/87 43/85/88
f 43/85/89 38/64/90 39/63/91 44/86/92
f 44/86/93 39/63/94 40/82/95 45/87/96
f 45/87/97 40/82/98 21/81/99 46/88/100
f 46/88/101 21/81/102 22/80/103 47/89/104
f 47/89/105 22/80/106 23/79/107 48/90/108
f 48/90/109 23/79/110 24/78/111 49/91/112
f 49/91/113 24/78/114 25/77/115 50/92/116
f 50/92/117 25/77/118 26/76/119 51/93/120
f 51/93/121 26/76/122 27/75/123 52/94/124
f 52/94/125 27/75/126 28/74/127 53/95/128
f 53/95/129 28/74/130 29/73/131 54/96/132
f 54/96/133 29/73/134 30/72/135 55/97/136
f 55/97/137 30/72/138 31/71/139 56/98/140
f 56/98/141 31/71/142 32/70/143 57/99/144
f 57/99/145 32/70/146 33/69/147 58/100/148
f 58/100/149 33/69/150 34/68/151 59/101/152
f 59/101/153 34/68/154 35/67/155 60/102/156
f 60/102/157 35/67/158 36/66/159 41/83/160
s 4
f 61/103/161 41/83/162 42/84/163 62/104/164
f 62/104/164 42/84/163 43/85/165 63/105/166
f 63/105/166 43/85/165 44/86/167 64/106/168
f 64/106/168 44/86/167 45/87/169 65/107/170
f 65/107/170 45/87/169 46/88/171 66/108/172
f 66/108/172 46/88/171 47/89/173 67/109/174
f 67/109/174 47/89/173 48/90/175 68/110/176
f 68/110/176 48/90/175 49/91/177 69/111/178
f 69/111/178 49/91/177 50/92/179 70/112/180
f 70/112/180 50/92/179 51/93/181 71/113/182
f 71/113/182 51/93/181 52/94/183 72/114/184
f 72/114/184 52/94/183 53/95/185 73/115/186
f 73/115/186 53/95/185 54/96/187 74/116/188
f 74/116/188 54/96/187 55/97/189 75/117/190
f 75/117/190 55/97/189 56/98/191 76/118/192
f 76/118/192 56/98/191 57/99/193 77/119/194
f 77/119/194 57/99/193 58/100/195 78/120/196
f 78/120/196 58/100/195 59/101/197 79/121/198
f 79/121/198 59/101/197 60/102/199 80/122/200
f 80/122/200 60/102/199 41/83/162 61/103/161
s off
f 81/123/201 61/103/202 62/104/203 82/124/204
f 82/124/205 62/104/206 63/105/207 83/125/208
f 83/125/209 63/105/210 64/106/211 84/126/212
f 84/126/213 64/106/214 65/107/215 85/127/216
f 85/127/217 65/107/218 66/108/219 86/128/220
f 86/128/221 66/108/222 67/109/223 87/129/224
f 87/129/225 67/109/226 68/110/227 88/130/228
f 88/130/229 68/110/230 69/111/231 89/131/232
f 89/131/233 69/111/234 70/112/235 90/132/236
f 90/132/237 70/112/238 71/113/239 91/133/240
f 91/133/241 71/113/242 72/114/243 92/134/244
f 92/134/245 72/114/246 73/115/247 93/135/248
f 93/135/249 73/115/250 74/116/251 94/136/252
f 94/136/253 74/116/254 75/117/255 95/137/256
f 95/137/257 75/117/258 76/118/259 96/138/260
f 96/138/261 76/118/262 77/119/263 97/139/264
f 97/139/265 77/119/266 78/120/267 98/140/268
f 98/140/269 78/120/270 79/121/271 99/141/272
f 99/141/273 79/121/274 80/122/275 100/142/276
f 100/142/277 80/122/278 61/103/279 81/123/280
s 5
f 101/143/281 81/123/282 82/124/283 102/144/284
f 102/144/284 82/124/283 83/125/285 103/145/286
f 103/145/286 83/125/285 84/126/287 104/146/288
f 104/146/288 84/126/287 85/127/289 105/147/290
f 105/147/290 85/127/289 86/128/291 106/148/292
f 106/148/292 86/128/291 87/129/293 107/149/294
f 107/149/294 87/129/293 88/130/295 108/150/296
f 108/150/296 88/130/295 89/131/297 109/151/298
f 109/151/298 89/131/297 90/132/299 110/152/300
f 110/152/300 90/132/299 91/133/301 111/153/302
f 111/153/302 91/133/301 92/134/303 112/154/304
f 112/154/304 92/134/303 93/135/305 113/155/306
f 113/155/306 93/135/305 94/136/307 114/156/308
f 114/156/308 94/136/307 95/137/309 115/157/310
f 115/157/310 95/137/309 96/138/311 116/158/312
f 116/158/312 96/138/311 97/139/313 117/159/314
f 117/159/314 97/139/313 98/140/315 118/160/316
f 118/160/316 98/140/315 99/141/317 119/161/318
f 119/161/318 99/141/317 100/142/319 120/162/320
f 120/162/320 100/142/319 81/123/282 101/143/281
